<svg class="svg-icon" style="width: 1em;height: 1em;vertical-align: middle;fill: currentColor;overflow: hidden;" viewBox="0 0 1024 1024" version="1.1" xmlns="http://www.w3.org/2000/svg"><path d="M511.413333 176a72.693333 72.693333 0 0 1 63.68 36.533333l309.92 520.426667a76 76 0 0 1 0.746667 77.226667A72.96 72.96 0 0 1 821.333333 848H202.666667a73.12 73.12 0 0 1-64.426667-37.76 76.053333 76.053333 0 0 1 0.693333-77.173333l308.693334-520.426667a72.693333 72.693333 0 0 1 64-36.64m0-64a137.066667 137.066667 0 0 0-119.04 67.946667l-308.693334 520.426666C28.64 793.546667 95.093333 912 202.666667 912h618.666666c107.68 0 174.133333-118.613333 118.666667-211.786667l-309.92-520.426666A136.96 136.96 0 0 0 511.413333 112z" fill="#333333" /><path d="M512 349.386667a32 32 0 0 0-32 32v224a32 32 0 0 0 64 0v-224a32 32 0 0 0-32-32zM512 679.146667a32 32 0 1 0 32 32 32 32 0 0 0-32-32z" fill="#333333" /></svg>