<svg class="svg-icon" style="width: 1em;height: 1em;vertical-align: middle;fill: currentColor;overflow: hidden;" viewBox="0 0 1024 1024" version="1.1" xmlns="http://www.w3.org/2000/svg"><path d="M455.954732 355.852488c8.891317 2.997073 18.382049-1.898146 21.379122-10.789464 2.897171-8.791415-1.998049-18.382049-10.889366-21.279219-8.891317-2.997073-18.382049 1.998049-21.27922 10.789463-2.797268 8.791415 1.898146 18.282146 10.789464 21.27922zM445.165268 380.628293c2.897171 8.891317 12.487805 13.786537 21.27922 10.889366 8.891317-2.997073 13.786537-12.487805 10.889366-21.379122-2.897171-8.791415-12.487805-13.686634-21.379122-10.789464s-13.586732 12.487805-10.789464 21.27922zM472.238829 418.091707c7.592585 5.594537 18.182244 3.796293 23.676878-3.69639 5.494634-7.592585 3.796293-18.182244-3.69639-23.676878-7.592585-5.494634-18.182244-3.796293-23.676878 3.796293-5.394732 7.39278-3.796293 18.082341 3.69639 23.576975zM576.437073 359.349073c-8.891317-2.897171-18.382049 1.998049-21.279219 10.789464-2.897171 8.891317 1.998049 18.382049 10.789463 21.379122 8.891317 2.897171 18.382049-1.998049 21.27922-10.889366 2.997073-8.791415-1.898146-18.382049-10.789464-21.27922zM587.226537 334.573268c-2.897171-8.791415-12.487805-13.786537-21.27922-10.789463-8.891317 2.897171-13.786537 12.487805-10.789463 21.279219 2.897171 8.891317 12.487805 13.786537 21.279219 10.789464 8.891317-2.997073 13.786537-12.487805 10.789464-21.27922z"  /><path d="M551.861073 364.643902c-25.575024-5.594537-30.070634-10.090146-35.665171-35.66517-5.594537 25.575024-9.990244 30.070634-35.66517 35.66517 24.97561 5.294829 29.770927 9.890341 35.265561 33.96683-9.191024 0.199805-16.483902 7.692488-16.483903 16.883512 0 9.290927 7.592585 16.883512 16.883512 16.883512 9.390829 0 16.983415-7.592585 16.983415-16.883512 0-9.290927-7.39278-16.583805-16.483902-16.883512 5.294829-24.17639 10.190049-28.672 35.165658-33.96683zM837.382244 733.58361H196.907707c-8.691512 0-15.684683 6.993171-15.684683 15.58478 0 8.691512 6.993171 15.684683 15.684683 15.684683h640.474537c8.691512 0 15.684683-7.093073 15.684683-15.684683-0.199805-8.59161-7.192976-15.58478-15.684683-15.58478zM837.382244 886.933854H196.907707c-8.691512 0-15.684683 6.993171-15.684683 15.58478 0 8.691512 6.993171 15.58478 15.684683 15.584781h640.474537c8.691512 0 15.684683-6.993171 15.684683-15.584781-0.199805-8.691512-7.192976-15.58478-15.684683-15.58478zM215.489561 770.947122v107.994537h603.111024V770.947122H215.489561z m118.784 74.627122h-46.154927c-12.088195 0-21.878634-9.890341-21.878634-21.878634 0-12.088195 9.690537-21.878634 21.878634-21.878634h46.154927c12.088195 0 21.878634 9.690537 21.878634 21.878634 0 12.088195-9.790439 21.878634-21.878634 21.878634z m93.608585-10.489756l-19.28117 10.989268-19.081366-11.189073-19.081366-11.089171 19.281171-11.089171 19.28117-11.08917 19.081366 11.08917 19.081366 11.189074-19.281171 11.189073z m112.290342 10.489756h-46.055025c-3.996098 0-7.692488-1.198829-10.889365-2.997073-6.493659-3.796293-10.889366-10.789463-10.889366-18.881561s4.395707-15.185171 10.889366-18.881561c3.196878-1.898146 6.993171-2.997073 10.889365-2.997073h46.055025c12.088195 0 21.878634 9.690537 21.878634 21.878634 0 12.088195-9.690537 21.878634-21.878634 21.878634zM640.874146 835.18439l-19.181268 10.989269-19.081366-11.189074-19.181268-10.989268 19.281171-11.089171 18.981463-11.08917 19.281171 11.189073 19.081366 11.089171-19.181269 11.08917z m105.297171 10.389854h-46.154927c-12.088195 0-21.878634-9.890341-21.878634-21.878634 0-12.088195 9.690537-21.878634 21.878634-21.878634h46.154927c11.988293 0 21.878634 9.690537 21.878634 21.878634-0.099902 12.088195-9.890341 21.878634-21.878634 21.878634z"  /><path d="M920.001561 460.050732c-20.679805 0-37.66322 15.58478-39.661268 35.66517-3.896195-9.890341-8.99122-19.480976-15.684683-28.572097 4.195902 1.498537 8.691512 2.297756 13.386927 2.297756 22.078439 0 40.060878-17.982439 40.060878-39.861073 0-22.078439-17.982439-40.060878-40.060878-40.060878-10.889366 0-20.87961 4.395707-28.072586 11.48878 2.097951-4.89522 3.29678-10.289951 3.296781-15.98439 0-22.078439-17.982439-40.060878-40.060878-40.060878-14.385951 0-26.973659 7.592585-33.96683 18.981463-2.297756-20.08039-19.081366-35.665171-39.76117-35.66517-22.078439 0-39.861073 17.982439-39.861074 40.060878s17.982439 40.060878 39.861074 40.060878c14.385951 0 26.973659-7.592585 33.966829-19.081366 1.198829 10.289951 6.193951 19.381073 13.586732 25.774829-15.884488-3.996098-33.767024-5.794341-53.347903-4.795317-19.980488 1.098927-38.862049 4.89522-56.644683 10.789463 13.886439-6.193951 23.477073-20.180293 23.477073-36.364487 0-22.078439-17.982439-40.060878-40.060878-40.060878s-39.861073 17.782634-39.861073 40.060878c0 6.293854 1.498537 12.188098 4.195903 17.582829-7.39278-8.791415-18.282146-14.286049-30.670049-14.286049-10.889366 0-20.779707 4.295805-27.872781 11.388878-0.599415-1.898146-1.398634-3.596488-2.497561-5.095024-5.494634-7.492683-15.98439-9.290927-23.676878-3.796293-7.592585 5.594537-9.191024 15.98439-3.69639 23.676878 4.295805 5.894244 11.88839 8.192 18.481951 6.193951-0.499512 2.497561-0.699317 4.89522-0.699317 7.592586 0 21.978537 17.982439 39.861073 40.060878 39.861073 1.398634 0 2.897171-0.099902 4.195903-0.199805-18.881561 17.083317-34.766049 36.963902-47.353756 58.243122-1.798244-4.295805-4.395707-8.291902-7.093074-11.988293-4.995122-6.793366-10.689561-12.987317-15.484878-19.980487-5.494634-7.992195-9.890341-16.583805-11.988292-25.974635-0.099902-0.39961-0.099902-0.79922-0.199805-1.198829-0.099902 0.39961-0.099902 0.79922-0.199805 1.198829-2.097951 9.490732-6.393756 18.182244-11.988293 25.974635-4.89522 6.893268-10.489756 13.187122-15.484878 19.980487-2.397659 3.196878-4.595512 6.693463-6.393756 10.289952-12.487805-20.779707-28.172488-40.060878-46.554536-56.644683 19.580878-2.597463 34.566244-19.281171 34.666146-39.561366 0-22.078439-17.982439-40.060878-40.060878-40.060878-12.387902 0-23.277268 5.594537-30.670049 14.286049 2.597463-5.294829 3.996098-11.288976 4.195903-17.58283 0-22.078439-17.982439-40.060878-40.060879-40.060878S323.683902 362.346146 323.683902 384.62439c0 12.587707 5.794341 23.77678 14.885464 31.069659-12.188098-2.997073-25.075512-4.89522-38.262634-5.594537-166.537366-9.390829-200.204488 191.612878-93.109073 197.507122 67.234341 3.796293 67.134439-70.43122 26.174439-72.728975-30.769951-1.798244-28.472195 36.06478-4.395708 34.066731 0 0 2.597463 14.485854-27.073561 12.787512-29.671024-1.698341-40.360585-33.367415-40.360585-33.367414s-5.894244-14.685659 11.189073 5.095024c17.083317 19.68078 33.767024 9.590634 33.767024 9.590634s-28.072585-18.282146-22.777756-57.743609c4.195902-31.96878 21.379122-50.950244 33.267513-58.043317 11.88839-7.093073 13.187122-5.594537-3.196878 14.286048-8.092098 9.890341-17.582829 31.469268 2.697365 48.952195 0 0 1.998049-36.06478 23.776781-51.949268 25.075512-18.182244 77.824-37.66322 153.550049-4.595512 0 0 9.690537 9.490732-11.888391 6.094049-21.479024-3.396683-108.893659-14.985366-113.089561 53.447805-2.397659 38.762146 34.766049 29.671024 34.766049 29.671024s-13.187122-8.391805-11.88839-30.670049c1.298732-22.078439 25.674927-47.253854 96.405854-43.257756 0 0 18.881561 9.990244-6.393756 10.689561-25.175415 0.79922-41.659317 7.592585-50.450732 22.677854 0 0 11.688585 13.886439 38.462439 6.693463 23.676878-6.493659 54.646634-3.896195 79.722146 23.676878-2.097951 0.099902-4.295805 0.599415-6.094049 1.898147-1.798244 1.298732-3.196878 2.997073-4.795317 4.495609-1.398634 1.398634-2.997073 2.497561-4.495609 3.796293 1.698341 2.097951 5.194927 0.39961 7.292878-0.39961 1.198829-0.39961 2.697366-0.79922 3.69639 0.199805 1.198829 1.398634 1.698341 3.796293 2.097951 5.594537 2.897171 9.690537 3.996098 20.779707 0.199805 30.370341-6.993171 18.082341-4.89522 37.363512 4.195902 54.346927 7.592585 14.485854 19.281171 26.574049 31.968781 36.564293 0.699317 0.599415 1.398634 1.198829 2.297756 1.698341l-9.590634 3.196878c-15.185171 9.390829-28.27239-28.27239-36.064781-70.830829-2.097951-11.48878-7.592585-20.779707-16.883512-16.883512-18.881561-26.474146-35.964878-38.562341-50.350829-24.775805-44.756293-26.274341-80.421463-19.081366-107.994537 16.583805 13.986341-9.890341 27.87278-15.98439 40.96-9.990244l18.681756 11.388878c-4.49561 20.679805 14.086244 51.349854 40.060878 79.322536-77.824-24.775805-180.124098-6.393756-193.011512 42.358635-6.493659 24.576-26.973659-0.199805-26.973658-0.199805-8.291902 35.864976 42.058927 49.851317 66.435122 4.495609 1.298732 16.384 19.68078 19.980488 33.167609 6.893269 24.276293-26.474146 43.857171-43.857171 51.949269-38.162732-7.592585 3.796293-12.787512 9.390829-9.490732 18.781659 2.597463 7.692488 12.987317 9.590634 27.573073 3.096975 26.174439-11.788488 58.243122-12.088195 98.70361 5.494634 32.967805 23.876683 64.237268 35.265561 71.130537 16.483903-5.894244-17.582829-16.483902-25.974634-29.571122-36.264586 19.081366 14.286049 37.962927 17.383024 56.245073 10.789464l0.599414 0.499512c0.099902-0.199805 0.099902-0.599415 0.099903-0.699317 1.498537-0.599415 3.096976-1.198829 4.49561-1.898146 2.097951 0.999024 4.295805 1.898146 6.393756 2.497561v0.099902-0.099902c17.982439 6.094049 36.46439 2.597463 55.146146-11.288976-13.08722 10.190049-23.676878 18.681756-29.571122 36.264585 6.493659 17.982439 34.965854 8.391805 66.035512-12.787512 44.456585-20.979512 79.022829-21.578927 106.795708-8.991219 14.585756 6.493659 24.97561 4.595512 27.573073-3.096976 3.29678-9.390829-1.998049-14.985366-9.490732-18.781659 7.992195-5.694439 27.573073 11.688585 51.749463 38.162732 13.386927 12.987317 31.96878 9.490732 33.16761-6.893268 24.376195 45.255805 74.627122 31.369366 66.435122-4.49561 0 0-20.579902 24.775805-26.973658 0.199805-13.08722-49.651512-118.983805-67.933659-197.107513-40.96 26.574049-28.472195 45.85522-59.841561 41.35961-80.721171l18.681756-11.388878c13.187122-6.193951 26.973659 0.099902 40.96 9.990244C739.278049 543.469268 703.612878 536.276293 658.856585 562.450732c-14.385951-13.786537-31.369366-1.698341-50.350829 24.775805-9.290927-3.796293-14.685659 5.294829-16.883512 16.883512-7.79239 42.558439-20.87961 80.121756-36.064781 70.830829l-9.590634-3.196878c0.699317-0.599415 1.398634-1.198829 2.097951-1.698341 12.787512-9.990244 24.376195-22.078439 32.068683-36.564293 8.891317-16.883512 11.189073-36.364488 4.195903-54.346927-3.69639-9.490732-2.597463-20.679805 0.199805-30.370341 0.599415-1.798244 0.999024-4.195902 2.097951-5.594537 0.999024-1.098927 2.497561-0.599415 3.69639-0.199805 1.998049 0.599415 5.594537 2.497561 7.292878 0.39961-1.398634-1.198829-3.096976-2.297756-4.49561-3.796293-1.498537-1.398634-2.997073-3.196878-4.795317-4.49561-1.298732-0.999024-2.897171-1.498537-4.395707-1.798243 25.075512-27.772878 56.145171-30.370341 79.822049-23.876683 26.673951 7.292878 38.462439-6.693463 38.462439-6.693464-8.891317-15.085268-25.275317-21.878634-50.450732-22.677853-25.275317-0.699317-6.393756-10.689561-6.393756-10.689561 70.631024-3.996098 95.00722 21.27922 96.405854 43.257756 1.298732 22.078439-11.88839 30.670049-11.88839 30.670048s37.163707 8.99122 34.766048-29.671024c-4.195902-68.433171-91.410732-56.844488-113.089561-53.447805-21.479024 3.396683-11.788488-6.094049-11.788487-6.094049 75.726049-32.967805 128.474537-13.686634 153.550048 4.595513 21.778732 15.784585 23.77678 51.949268 23.776781 51.949268 20.380098-17.582829 10.789463-39.161756 2.897171-48.952195-16.384-19.880585-15.085268-21.27922-3.196879-14.286049 11.88839 7.093073 29.07161 25.974634 33.267513 58.043317 5.194927 39.461463-22.777756 57.74361-22.777756 57.74361s16.583805 10.090146 33.767024-9.590634c17.083317-19.880585 11.189073-5.095024 11.189073-5.095025s-10.689561 31.669073-40.360585 33.267512c-29.671024 1.698341-27.073561-12.787512-27.073561-12.787512 24.076488 1.898146 26.474146-35.864976-4.395708-34.066731-40.96 2.297756-41.059902 76.625171 26.174439 72.728975h0.199805c-12.587707 2.997073-22.078439 14.286049-22.078439 27.772878 0 15.784585 12.787512 28.472195 28.572098 28.472195s28.472195-12.68761 28.472195-28.472195c0-15.58478-12.487805-28.27239-28.072585-28.472195 41.35961-6.094049 59.042341-43.457561 53.447805-84.117854 7.292878 10.090146 19.081366 16.78361 32.568195 16.78361 22.078439 0 39.861073-17.782634 39.861073-39.861073 0.499512-21.778732-17.482927-39.661268-39.561366-39.661268zM394.314927 410.599024c-2.597463 5.294829-4.195902 11.288976-4.195903 17.58283 0 2.697366 0.199805 5.294829 0.79922 7.992195-7.79239-4.295805-15.98439-8.092098-24.476098-11.388878 11.189073-0.79922 21.079415-6.094049 27.872781-14.186147zM631.383415 442.967415c1.898146-4.595512 2.897171-9.590634 2.89717-14.885464 0-6.393756-1.498537-12.387902-4.195902-17.582829 7.39278 8.791415 18.282146 14.286049 30.670049 14.286049 3.596488 0 6.993171-0.499512 10.190048-1.298732-13.986341 5.294829-27.173463 11.788488-39.561365 19.480976z m182.821463-17.882537c10.589659-0.199805 20.180293-4.49561 27.173463-11.388878-2.097951 4.89522-3.396683 10.289951-3.396682 15.98439 0 3.996098 0.599415 7.79239 1.798243 11.488781-7.692488-6.094049-16.184195-11.588683-25.575024-16.084293z"  /><path d="M146.357073 469.441561c22.078439 0 40.060878-17.982439 40.060878-39.861073 0-5.694439-1.198829-11.189073-3.396683-15.98439 7.292878 7.093073 17.083317 11.388878 28.172488 11.48878 20.679805-0.099902 37.563317-15.58478 39.661268-35.665171 6.993171 11.388878 19.580878 19.081366 33.96683 19.081366 22.078439 0 40.060878-17.982439 40.060878-40.060878s-17.782634-40.060878-40.060878-40.060878c-20.579902 0-37.563317 15.58478-39.661269 35.665171-6.993171-11.388878-19.580878-18.981463-33.966829-18.981464-22.078439 0-39.861073 17.982439-39.861073 40.060878 0 5.694439 1.198829 11.089171 3.29678 15.984391-7.292878-7.093073-17.083317-11.48878-28.072585-11.488781-22.078439 0-40.060878 17.982439-40.060878 40.060878 0 21.878634 17.782634 39.761171 39.861073 39.761171z"  /><path d="M144.359024 500.011707c0-22.078439-17.982439-40.060878-40.060878-40.060878s-39.861073 17.782634-39.861073 40.060878c0 22.078439 17.982439 39.861073 39.861073 39.861073 22.278244 0 40.060878-17.782634 40.060878-39.861073zM200.104585 664.750829c15.784585 0 28.572098-12.68761 28.572098-28.472195s-12.787512-28.572098-28.572098-28.572097-28.472195 12.787512-28.472195 28.572097c-0.099902 15.58478 12.787512 28.472195 28.472195 28.472195z"  /><path d="M146.157268 563.749463c0-13.786537-11.189073-24.97561-24.975609-24.975609-13.686634 0-24.775805 11.189073-24.775805 24.975609 0 13.686634 11.189073 24.675902 24.775805 24.675903 13.886439 0.099902 24.97561-10.989268 24.975609-24.675903zM912.408976 540.871805c-13.786537 0-24.97561 11.189073-24.97561 24.97561 0 13.686634 11.189073 24.775805 24.97561 24.775805 13.686634 0 24.775805-11.189073 24.775804-24.775805 0-13.786537-11.089171-24.97561-24.775804-24.97561zM884.835902 587.026732c-13.786537 0-24.775805 11.189073-24.775804 24.775805 0 13.786537 11.189073 24.775805 24.775804 24.775804 13.786537 0 24.775805-11.089171 24.775805-24.775804 0.099902-13.586732-10.989268-24.775805-24.775805-24.775805zM170.733268 611.902439c0-13.686634-11.189073-24.775805-24.775805-24.775805-13.786537 0-24.775805 11.189073-24.775804 24.775805 0 13.786537 11.189073 24.775805 24.775804 24.775805 13.686634 0.099902 24.775805-10.989268 24.775805-24.775805zM497.114537 451.858732c0 9.690537 7.79239 17.582829 17.582829 17.582829 9.690537 0 17.582829-7.992195 17.582829-17.582829 0-9.690537-7.79239-17.682732-17.582829-17.682732s-17.582829 7.992195-17.582829 17.682732zM497.114537 713.50322c0 9.690537 7.79239 17.582829 17.582829 17.582829 9.690537 0 17.582829-7.992195 17.582829-17.582829 0-9.690537-7.79239-17.682732-17.582829-17.682732s-17.582829 7.892293-17.582829 17.682732zM332.675122 713.50322c0 9.690537 7.79239 17.582829 17.582829 17.582829 9.690537 0 17.682732-7.992195 17.682732-17.582829 0-9.690537-7.79239-17.682732-17.682732-17.682732-9.590634 0-17.582829 7.892293-17.582829 17.682732zM661.354146 713.50322c0 9.690537 7.79239 17.582829 17.58283 17.582829s17.682732-7.992195 17.682731-17.582829c0-9.690537-7.992195-17.682732-17.682731-17.682732-9.590634 0-17.582829 7.892293-17.58283 17.682732z"  /><path d="M661.354146 713.50322c0 9.690537 7.79239 17.582829 17.58283 17.582829s17.682732-7.992195 17.682731-17.582829c0-9.690537-7.992195-17.682732-17.682731-17.682732-9.590634 0-17.582829 7.892293-17.58283 17.682732zM541.870829 227.577756l56.245073 22.078439 26.474147-35.864975-26.474147-35.765074-59.342048 23.277269c-2.697366-3.796293-6.493659-6.993171-10.789464-8.99122l23.477073-59.941463-35.765073-26.374244-35.765073 26.474146 23.776781 60.341073c-4.295805 2.097951-7.992195 5.494634-10.589659 9.490732l-58.942439-23.177366-26.474146 35.864976 26.474146 35.864975 56.644683-22.278244c2.397659 5.494634 6.493659 9.990244 11.688585 12.987318l-20.679805 52.648585c-3.29678 0.099902-6.693463 1.198829-9.590634 3.196878-7.492683 5.494634-9.290927 15.98439-3.69639 23.676878 5.494634 7.492683 16.184195 9.191024 23.676878 3.69639 4.89522-3.596488 7.292878-9.191024 6.893268-14.685658l17.58283 13.087219 16.483902-12.188097c-0.099902 5.294829 2.397659 10.589659 6.993171 13.886439 7.492683 5.494634 18.182244 3.796293 23.676878-3.696391 5.494634-7.592585 3.796293-18.182244-3.69639-23.676878-2.597463-1.898146-5.594537-2.997073-8.391805-3.196878l-20.87961-53.048195c4.89522-3.496585 8.891317-8.192 10.989268-13.686634z"  /></svg>