<svg class="svg-icon" style="width: 1em;height: 1em;vertical-align: middle;fill: currentColor;overflow: hidden;" viewBox="0 0 1024 1024" version="1.1" xmlns="http://www.w3.org/2000/svg"><path d="M257.748293 770.947122h-45.955122c-10.789463 0-19.480976 8.691512-19.480976 19.480976s8.791415 19.580878 19.480976 19.580878h45.955122c10.689561 0 19.480976-8.791415 19.480975-19.580878s-8.59161-19.480976-19.480975-19.480976zM442.567805 770.947122h-45.85522c-10.789463 0-19.480976 8.691512-19.480975 19.480976s8.691512 19.580878 19.480975 19.580878H442.567805c10.789463 0 19.480976-8.791415 19.480975-19.580878s-8.691512-19.480976-19.480975-19.480976z"  /><path d="M871.748683 411.298341c-13.187122 5.594537-25.275317 11.288976-36.664195 16.78361-16.483902-60.540878-62.23922-93.308878-122.780098-57.943414-65.635902 35.465366-108.793756 68.133463-147.555902 92.010146-7.692488-43.457561-18.781659-78.22361-31.868878-107.694829 35.265561-29.47122 52.84839-18.881561 46.354731 46.354731 52.248976-53.64761 59.242146-86.715317 16.384-97.10517-20.08039 0.099902-42.958049 8.99122-67.234341 22.478048 23.077463-15.784585 41.659317-42.158829 39.261659-63.637853-0.599415-16.184195-7.192976-21.27922-18.382049-16.983415-19.68078 7.592585-24.675902-23.77678-32.967805-50.350829-1.398634 0.39961-2.897171 0.599415-4.295805 0.599414-1.498537 0-2.997073-0.099902-4.295805-0.599414-8.291902 26.673951-13.287024 57.943415-32.967805 50.350829-11.189073-4.295805-17.782634 0.79922-18.382049 16.983415-2.397659 21.578927 16.284098 47.853268 39.261659 63.637853-24.17639-13.386927-47.153951-22.278244-67.234341-22.478048-42.858146 10.289951-35.864976 43.457561 16.384 97.10517-6.493659-65.13639 11.089171-75.726049 46.354731-46.354731-13.08722 29.371317-24.17639 64.137366-31.868878 107.694829C420.589268 438.272 377.431415 405.603902 311.69561 370.138537c-60.540878-35.365463-106.296195-2.497561-122.780098 57.943414-11.388878-5.594537-23.477073-11.189073-36.664195-16.78361-64.836683-30.370341-96.805463 31.369366-85.61639 112.090537 8.891317 66.035512 40.96 109.992585 71.230439 145.258146 16.384 19.081366 38.262634 32.668098 56.844488 46.154927h-50.151025V864.156098H879.141463V714.801951h-49.951219c18.681756-13.486829 40.460488-27.073561 56.844488-46.154927 30.370341-35.365463 62.339122-79.222634 71.230439-145.258146 11.288976-80.721171-20.579902-142.460878-85.516488-112.090537zM257.748293 821.797463h-45.955122c-17.383024 0-31.469268-13.986341-31.469269-31.469268 0-17.383024 14.086244-31.469268 31.469269-31.469268h45.955122c17.383024 0 31.369366 14.086244 31.369366 31.469268 0.099902 17.482927-13.986341 31.469268-31.369366 31.469268z m-21.079415-106.995512c-3.69639-8.291902-8.791415-16.983415-15.684683-25.974634 0.699317 4.195902-71.630049-93.208976-79.921951-161.142634-8.391805-45.85522-13.08722-79.822049 23.77678-85.816195 4.89522-0.499512 11.88839 1.398634 20.180293 4.295805-1.498537 9.290927-2.497561 18.981463-2.897171 29.071609-2.297756 72.229463 28.871805 124.678244 59.741659 167.636293 21.878634 30.470244 53.048195 50.350829 74.12761 71.929756h-79.322537zM442.567805 821.797463h-45.85522c-17.383024 0-31.469268-13.986341-31.469268-31.469268 0-17.383024 14.086244-31.469268 31.469268-31.469268H442.567805c17.383024 0 31.369366 14.086244 31.369366 31.469268-0.099902 17.482927-14.086244 31.469268-31.369366 31.469268z m-85.016976-106.995512c-2.597463-11.089171-7.692488-23.177366-15.784585-35.964878 0.099902 4.49561-70.531122-112.090537-67.334244-186.218146-1.198829-50.450732-0.39961-87.514537 46.854244-87.714342 25.075512 1.498537 83.718244 45.45561 136.167024 67.334244-5.194927 32.268488-8.691512 69.23239-9.690536 112.190439 0.699317 52.049171 11.189073 93.708488 26.474146 130.372683H357.550829z m155.847805-47.054049c-9.890341 0-17.882537-7.992195-17.882536-17.882536 0-9.890341 8.092098-17.782634 17.882536-17.782634 9.890341 0 17.882537 7.992195 17.882537 17.782634 0.099902 9.990244-7.992195 17.882537-17.882537 17.882536z m0-60.740682c-9.890341 0-17.882537-8.092098-17.882536-17.882537 0-9.890341 8.092098-17.882537 17.882536-17.882537 9.890341 0 17.882537 8.092098 17.882537 17.882537 0.099902 9.790439-7.992195 17.882537-17.882537 17.882537z m0-60.940488c-9.890341 0-17.882537-8.092098-17.882536-17.882537s8.092098-17.882537 17.882536-17.882536c9.890341 0 17.882537 8.092098 17.882537 17.882536 0.099902 9.790439-7.992195 17.882537-17.882537 17.882537z m0-61.040391c-9.890341 0-17.882537-7.992195-17.882536-17.782634 0-9.990244 8.092098-17.882537 17.882536-17.882536 9.890341 0 17.882537 7.992195 17.882537 17.882536 0.099902 9.890341-7.992195 17.782634-17.882537 17.782634z m0-60.740682c-9.890341 0-17.882537-8.092098-17.882536-17.882537 0-9.890341 8.092098-17.882537 17.882536-17.882537 9.890341 0 17.882537 8.092098 17.882537 17.882537 0.099902 9.790439-7.992195 17.882537-17.882537 17.882537z m113.888781 397.511804h-45.955122c-17.383024 0-31.469268-13.986341-31.469269-31.469268 0-17.383024 14.086244-31.469268 31.469269-31.469268h45.955122c17.383024 0 31.369366 14.086244 31.369365 31.469268 0 17.482927-13.986341 31.469268-31.369365 31.469268z m54.846439-142.96039c-8.092098 12.787512-13.187122 24.775805-15.784586 35.964878H549.563317c15.285073-36.664195 25.874732-78.323512 26.474146-130.372683-1.198829-42.958049-4.595512-79.921951-9.690536-112.190439 52.44878-21.878634 111.091512-65.735805 136.167024-67.334244 47.253854 0.199805 48.252878 37.26361 47.054049 87.714342 3.196878 74.227512-67.534049 190.813659-67.434146 186.218146z m161.242536 111.491122c0 17.482927-13.986341 31.469268-31.369366 31.469268H766.251707c-17.383024 0-31.469268-13.986341-31.469268-31.469268 0-17.383024 14.086244-31.469268 31.469268-31.469268h45.85522c17.283122 0 31.269463 14.086244 31.269463 31.469268z m39.461464-262.643512c-8.291902 67.933659-80.721171 165.238634-79.921952 161.142634-6.893268 8.99122-11.988293 17.682732-15.684682 25.974634h-79.222635c20.87961-21.578927 52.248976-41.459512 74.12761-71.929756 30.869854-42.958049 61.939512-95.506732 59.741659-167.636293-0.199805-10.090146-1.298732-19.780683-2.897171-29.071609 8.192-2.997073 15.285073-4.795317 20.180293-4.295805 36.864 5.994146 32.068683 39.960976 23.676878 85.816195z"  /><path d="M766.051902 770.947122c-10.789463 0-19.480976 8.691512-19.480975 19.480976s8.791415 19.580878 19.480975 19.580878h45.85522c10.689561 0 19.480976-8.791415 19.480976-19.580878s-8.791415-19.480976-19.480976-19.480976h-45.85522zM627.287415 770.947122h-45.955122c-10.789463 0-19.480976 8.691512-19.480976 19.480976s8.791415 19.580878 19.480976 19.580878h45.955122c10.689561 0 19.480976-8.791415 19.480975-19.580878s-8.791415-19.480976-19.480975-19.480976zM516.295805 195.109463c7.79239-1.898146 13.686634-8.99122 13.686634-17.383024 0-9.890341-8.092098-17.882537-17.882537-17.882537-9.890341 0-17.882537 8.092098-17.882536 17.882537 0 8.291902 5.794341 15.484878 13.486829 17.383024 1.398634 0.39961 2.897171 0.599415 4.295805 0.599415s2.797268-0.299707 4.295805-0.599415z"  /></svg>