<svg width="80" height="80" viewBox="0 0 80 80" fill="none" xmlns="http://www.w3.org/2000/svg">
<path d="M10 20H16.6667M16.6667 20H70M16.6667 20V66.6667C16.6667 68.4348 17.369 70.1305 18.6193 71.3807C19.8695 72.631 21.5652 73.3334 23.3333 73.3334H56.6667C58.4348 73.3334 60.1305 72.631 61.3807 71.3807C62.631 70.1305 63.3333 68.4348 63.3333 66.6667V20M26.6667 20V13.3334C26.6667 11.5652 27.369 9.86955 28.6193 8.61931C29.8695 7.36907 31.5652 6.66669 33.3333 6.66669H46.6667C48.4348 6.66669 50.1305 7.36907 51.3807 8.61931C52.631 9.86955 53.3333 11.5652 53.3333 13.3334V20M33.3333 36.6667V56.6667M46.6667 36.6667V56.6667" stroke="#1E1E1E" stroke-width="5" stroke-linecap="round" stroke-linejoin="round"/>
</svg>
